<svg width="42" height="38" viewBox="0 0 42 38" fill="none" xmlns="http://www.w3.org/2000/svg">
<path d="M40.2302 27.2413L36.6189 23.9738C36.3028 23.7084 36.0862 23.3603 35.9993 22.9781C35.9125 22.5959 35.9597 22.1987 36.1345 21.842C36.9024 20.3499 37.3079 18.7262 37.3236 17.0803C37.3338 17.0142 37.3338 16.9471 37.3236 16.881C37.3312 14.497 36.5151 12.1704 34.9895 10.2266C32.0412 6.49843 28.1339 3.47596 23.6052 1.42038C20.7326 0.147997 17.4936 -0.284334 14.3372 0.183315C11.1809 0.650965 8.26348 1.99543 5.98939 4.03037L4.51406 5.36525C2.24135 7.43066 0.740909 10.0884 0.223523 12.9651C-0.293864 15.8418 0.197809 18.7928 1.62947 21.4037L1.84966 21.7424C0.674546 22.8454 0.0124205 24.3146 0 25.8466C0.00874288 26.9038 0.327231 27.94 0.92298 28.8494C1.51873 29.7589 2.37042 30.5091 3.39118 31.0236C4.41194 31.538 5.56525 31.7983 6.73347 31.7779C7.90169 31.7574 9.04301 31.457 10.041 30.9072C10.4374 31.1862 10.7897 31.485 11.1861 31.744C12.0195 32.2683 12.9219 32.6967 13.8725 33.0191H14.0707C14.467 33.1586 14.8854 33.2781 15.3258 33.3977H15.6561C16.3414 33.5569 17.0418 33.657 17.748 33.6965H19.1132C19.5756 33.6965 20.016 33.6965 20.4784 33.577H20.8528C21.9354 33.4088 22.9875 33.1071 23.9796 32.6804C24.3749 32.5364 24.808 32.4992 25.2262 32.5735C25.6444 32.6478 26.0298 32.8302 26.3357 33.0988L29.5506 36.0076C30.9455 37.2742 32.8372 37.9903 34.8133 38C36.4709 37.9839 38.0541 37.3751 39.2173 36.3065L40.054 35.5494C41.2686 34.4557 41.9659 32.9777 41.9988 31.4276C42.0317 29.8774 41.3975 28.3764 40.2302 27.2413V27.2413ZM6.53988 27.8788C6.10437 27.8788 5.67864 27.762 5.31653 27.5431C4.95441 27.3242 4.67218 27.013 4.50552 26.6489C4.33885 26.2849 4.29525 25.8843 4.38021 25.4978C4.46518 25.1113 4.67489 24.7563 4.98285 24.4777C5.2908 24.199 5.68315 24.0093 6.1103 23.9324C6.53744 23.8555 6.98018 23.895 7.38254 24.0458C7.7849 24.1966 8.1288 24.452 8.37076 24.7796C8.61272 25.1072 8.74186 25.4924 8.74186 25.8865C8.74186 26.4149 8.50987 26.9217 8.09692 27.2953C7.68397 27.6689 7.12388 27.8788 6.53988 27.8788ZM13.366 28.1578L12.7935 27.7593C13.0228 27.1565 13.1418 26.5239 13.1458 25.8865C13.1458 24.3013 12.4498 22.781 11.211 21.6601C9.97213 20.5392 8.29189 19.9094 6.53988 19.9094H5.70313L5.50495 19.5907C4.48076 17.7269 4.12751 15.6197 4.49481 13.565C4.8621 11.5102 5.93149 9.61123 7.55279 8.13462L9.02812 6.79974C10.681 5.36633 12.7867 4.43483 15.0521 4.13487C17.3175 3.83491 19.6299 4.18141 21.6675 5.12616C25.3664 6.80017 28.5794 9.23641 31.0479 12.2389L13.366 28.1578ZM37.1034 32.8797L36.2886 33.6367C35.3638 34.4735 33.9325 34.3141 32.7434 33.2383L29.5286 30.3494C28.5818 29.4983 27.3724 28.9267 26.0595 28.7097C24.7467 28.4928 23.392 28.6407 22.1739 29.134C21.4797 29.4418 20.7369 29.6502 19.972 29.7517C19.5511 29.8244 19.1232 29.8577 18.6948 29.8513H17.7259L32.8535 16.1638C33.0077 17.5289 32.7489 18.9062 32.1049 20.1485C31.5597 21.2506 31.3962 22.4764 31.6359 23.6642C31.8757 24.8521 32.5075 25.9464 33.4481 26.803L37.0593 30.0904C37.4687 30.4575 37.7027 30.9553 37.7109 31.4769C37.7191 31.9984 37.501 32.502 37.1034 32.8797V32.8797Z" fill="black" fill-opacity="0.05"/>
</svg>
